PathFileType	4	(X/Y/Z)	C:\Users\Basilio\Documents\Thesis Gigler\squatting_fais\c3dfiles\040\SLS_pre_front2\markers_experimental.trc
DataRate	CameraRate	NumFrames	NumMarkers	Units	OrigDataRate	OrigDataStartFrame	OrigNumFrames
200.000000	200.000000	4	62	mm	200.000000	551	1471
Frame#	Time	FHD			LBHD			RBHD			C7			T10			CLAV			LSHO			LUUPA			LMUPA			LDUPA			LLEP			LMEP			LRAD			LUL			LRFIN			RSHO			RUPA1			RMUPA			RDUPA			RLEP			RMEP			RRAD			RUL			RUFIN			LASI			RASI			USACR			LSACR			RSACR			LTHI1			LTHI2			LTHI3			LTHI4			LLFC			LMFC			LTIB1			LTIB2			LTIB3			LTIB4			LLMAL			LMMAL			LHEE			LMT1			LMT2			LMT5			RTHI			RTHI2			RTHI3			RTHI4			RLFC			RMFC			RTIB1			RTIB2			RTIB3			RTIB4			RLMAL			RMMAL			RHEE			RMT1			RMT2			RMT5			*61			
		X1	Y1	Z1	X2	Y2	Z2	X3	Y3	Z3	X4	Y4	Z4	X5	Y5	Z5	X6	Y6	Z6	X7	Y7	Z7	X8	Y8	Z8	X9	Y9	Z9	X10	Y10	Z10	X11	Y11	Z11	X12	Y12	Z12	X13	Y13	Z13	X14	Y14	Z14	X15	Y15	Z15	X16	Y16	Z16	X17	Y17	Z17	X18	Y18	Z18	X19	Y19	Z19	X20	Y20	Z20	X21	Y21	Z21	X22	Y22	Z22	X23	Y23	Z23	X24	Y24	Z24	X25	Y25	Z25	X26	Y26	Z26	X27	Y27	Z27	X28	Y28	Z28	X29	Y29	Z29	X30	Y30	Z30	X31	Y31	Z31	X32	Y32	Z32	X33	Y33	Z33	X34	Y34	Z34	X35	Y35	Z35	X36	Y36	Z36	X37	Y37	Z37	X38	Y38	Z38	X39	Y39	Z39	X40	Y40	Z40	X41	Y41	Z41	X42	Y42	Z42	X43	Y43	Z43	X44	Y44	Z44	X45	Y45	Z45	X46	Y46	Z46	X47	Y47	Z47	X48	Y48	Z48	X49	Y49	Z49	X50	Y50	Z50	X51	Y51	Z51	X52	Y52	Z52	X53	Y53	Z53	X54	Y54	Z54	X55	Y55	Z55	X56	Y56	Z56	X57	Y57	Z57	X58	Y58	Z58	X59	Y59	Z59	X60	Y60	Z60	X61	Y61	Z61	X62	Y62	Z62	

552	2.755	-205.3589782714844	1472.882446289063	-1151.962280273438	-329.0630187988282	1421.772705078125	-1194.38427734375	-381.9559936523438	1382.215576171875	-1062.937133789063	-376.4381713867188	1281.232299804688	-1110.193725585938	-511.7462768554689	1003.27880859375	-1072.363647460938	-266.7299804687501	1191.537963867188	-1120.310668945313	-299.4361877441407	1282.9931640625	-1244.431030273438	-144.0816192626953	1263.56201171875	-1324.902954101563	-116.4218826293946	1270.422729492188	-1283.619140625	-75.37589263916017	1254.253295898438	-1326.05810546875	-16.12010765075684	1231.057006835938	-1328.794921875	-24.66556358337403	1171.9384765625	-1303.408081054688	nan	nan	nan	259.8535766601563	1260.857177734375	-1268.003173828125	323.4840393066407	1277.419189453125	-1174.837524414063	-267.9427795410157	1264.5537109375	-989.9055175781252	-109.9958267211914	1217.825805664063	-914.8256835937502	-83.84140777587892	1237.739624023438	-950.5191650390627	-41.00426483154298	1205.623901367188	-922.5382080078127	21.01579475402832	1199.802734375	-936.098083496094	10.88878631591797	1136.67626953125	-979.2222290039065	263.5030822753907	1256.636962890625	-1097.35595703125	282.8355102539063	1240.4013671875	-1025.22802734375	357.7233581542969	1274.374267578125	-1100.999633789063	-389.3589782714845	808.5792236328127	-1172.174926757813	-375.9366760253907	818.6361083984377	-952.9387817382815	-562.5885009765626	844.0069580078127	-1048.941284179688	-574.0847778320314	811.2135009765627	-1076.163330078125	-567.0439453125001	811.259948730469	-1020.314697265625	-328.8700561523438	579.5456542968751	-1232.90478515625	-245.5377197265626	565.0868530273439	-1244.578857421875	-218.7487487792969	603.0557861328126	-1249.639892578125	-214.3602905273438	515.7318725585939	-1228.805297851563	-111.6491088867188	452.2515258789064	-1215.85205078125	-115.7495880126953	456.3050842285157	-1092.078857421875	-158.6915893554688	255.622299194336	-1133.115600585938	-239.3710632324219	251.8793182373047	-1174.024780273438	-206.3553924560547	230.6596069335938	-1152.274291992188	-241.0302886962891	165.0499114990235	-1103.167724609375	-345.6670227050782	118.8074111938477	-1110.198608398438	-304.1955261230469	139.2022399902344	-1031.036987304688	-413.017303466797	96.73794555664065	-1049.268798828125	-199.4715576171876	57.95732879638673	-1051.414306640625	-204.3979797363282	52.15377044677736	-1097.874755859375	-261.1121215820313	36.01832962036134	-1138.150512695313	-279.5436096191407	618.2590942382814	-866.1365966796877	-215.0245208740235	607.2792358398439	-871.7744140625002	-194.5702514648438	632.6980590820314	-879.1240844726565	-175.4672241210938	534.0255737304689	-879.6119384765627	-66.1562957763672	454.4248046875001	-888.6796875000002	-55.19572830200197	451.5095520019532	-1024.1455078125	108.7572555541992	376.1228332519532	-907.1168212890627	122.3000946044922	271.8920288085938	-881.8621826171877	154.9952392578125	304.4357299804688	-890.7091064453127	201.9223785400391	288.5005493164063	-923.0801391601565	261.3179016113282	175.3488006591797	-897.9165039062502	261.3724670410157	198.8481750488282	-985.322204589844	260.6629333496094	95.41418457031251	-950.328552246094	399.9191284179689	271.2691040039063	-966.2600708007815	394.4187927246095	271.5757446289063	-926.9129638671877	391.1691894531251	222.9235992431641	-874.0369262695315	nan	nan	nan	
553	2.76	-204.7445373535157	1471.701171875	-1152.379272460938	-328.7894287109376	1419.980224609375	-1194.624877929688	-381.7753906250001	1380.312255859375	-1063.332397460938	-376.0741882324219	1279.90869140625	-1110.322265625	-511.7157592773439	1002.234680175781	-1072.453491210938	-265.6690368652344	1190.405639648438	-1120.501953125	-298.6529235839844	1281.318725585938	-1244.55859375	-143.4349060058594	1262.30712890625	-1324.93310546875	-115.6894149780274	1269.194213867188	-1283.698608398438	-74.6596145629883	1252.986206054688	-1326.24658203125	-15.294677734375	1229.9794921875	-1328.949951171875	-23.87871170043946	1170.605834960938	-1303.461669921875	nan	nan	nan	260.4842224121094	1259.977905273438	-1268.154418945313	324.2875671386719	1276.47802734375	-1175.083984375	-267.6354064941407	1263.132934570313	-990.4275512695315	-109.3366317749024	1216.8125	-915.1828613281252	-83.30010223388673	1236.739135742188	-950.8872070312502	-40.54110336303712	1204.541870117188	-922.998229980469	21.49252319335938	1199.26611328125	-936.296813964844	12.16567611694336	1136.284301757813	-978.0642700195315	264.2278137207032	1255.818603515625	-1097.461303710938	283.3236999511719	1239.9404296875	-1025.000244140625	357.7894287109376	1273.440307617188	-1100.839965820313	-389.7641601562501	807.383972167969	-1171.941772460938	-376.2172851562501	817.6022949218752	-952.9183349609377	-562.9772949218751	842.8698730468752	-1048.73583984375	-574.3489990234376	809.9307861328127	-1076.001831054688	-567.4344482421876	810.2204589843752	-1020.289794921875	-329.0280456542969	578.6706542968751	-1232.8125	-245.6011962890626	564.4476928710939	-1244.469116210938	-218.9810638427735	602.4728393554689	-1249.60595703125	-214.4593048095704	515.0877685546876	-1228.972412109375	-111.3284530639649	451.9305419921876	-1216.052978515625	-114.8418579101563	455.9664916992189	-1092.16796875	-158.7437896728516	255.5291748046876	-1133.341552734375	-239.5115966796876	251.8382720947266	-1174.396484375	-206.3602294921876	230.5696105957032	-1152.574340820313	-241.1302490234376	165.0753173828125	-1103.33837890625	-345.7567443847657	118.7746200561524	-1110.342651367188	-304.1463317871094	139.2519989013672	-1031.287963867188	-413.016815185547	96.70661163330081	-1049.395385742188	-198.9444274902344	57.60898208618165	-1051.525390625	-204.4329681396485	52.13644027709962	-1097.938354492188	-261.0538330078126	35.88372039794923	-1138.189086914063	-279.6693725585938	617.2108764648439	-865.900329589844	-215.1373291015626	606.1443481445314	-871.665710449219	-194.3626556396485	631.7789306640626	-879.264099121094	-175.4859313964844	533.2667236328126	-879.4712524414065	-66.04548645019533	453.5001525878907	-888.965515136719	-55.15962600708009	451.0459289550782	-1024.201538085938	109.3861160278321	376.1521301269532	-907.357849121094	123.1611480712891	271.4989013671876	-882.1431274414065	155.4216766357422	304.4907226562501	-890.7866210937502	202.538314819336	288.5564575195313	-923.308532714844	261.9820861816407	175.3471069335938	-898.3958740234377	262.2012023925782	199.1803131103516	-985.5933227539065	262.4873657226563	96.34075927734378	-950.3059692382815	400.6212158203126	271.9733886718751	-966.6243286132815	395.3956298828126	272.0453796386719	-927.1325683593752	391.6569213867189	223.5365753173829	-874.3437500000002	nan	nan	nan	
554	2.765	-204.9435577392579	1469.828491210938	-1152.542602539063	-328.6027832031251	1418.296020507813	-1194.947021484375	-381.4786071777344	1378.40625	-1063.657592773438	-375.5594482421876	1278.217529296875	-1110.738891601563	-511.715301513672	1001.093566894531	-1072.518310546875	-266.0206298828126	1188.249267578125	-1120.713012695313	-298.0638732910157	1279.637939453125	-1244.813842773438	-142.7728271484375	1260.949951171875	-1324.947143554688	-115.1310729980469	1267.855224609375	-1283.904052734375	-74.00350189208986	1251.711547851563	-1326.227661132813	-14.53790855407715	1228.714965820313	-1329.020751953125	-23.07486915588379	1169.296264648438	-1303.669189453125	nan	nan	nan	260.9548950195313	1259.236572265625	-1268.417724609375	324.9970092773438	1275.443725585938	-1175.259399414063	-267.4386901855469	1261.802856445313	-991.279724121094	-109.4947357177735	1216.860107421875	-915.7422485351565	-83.03598785400392	1236.33544921875	-951.2071533203127	-40.10060501098634	1203.758666992188	-922.5250244140627	22.12410163879395	1197.31396484375	-935.7446899414065	12.60401344299317	1135.014282226563	-978.5039062500002	264.9290161132813	1255.09326171875	-1097.371948242188	283.9049682617188	1239.072509765625	-1024.974487304688	359.4448242187501	1272.459228515625	-1100.880737304688	-390.1477661132814	806.099792480469	-1171.943603515625	-376.3918762207032	816.268005371094	-952.838562011719	-563.0595092773439	841.6195068359377	-1048.6689453125	-574.5316162109376	809.142028808594	-1075.627319335938	-567.7580566406251	809.0086669921877	-1019.9609375	-329.3076477050782	577.7877197265626	-1232.670166015625	-245.6613922119141	563.5910644531251	-1244.529296875	-219.4465332031251	601.9214477539064	-1249.563720703125	-214.3894805908204	514.4080200195314	-1229.077026367188	-111.0697860717774	451.6611938476564	-1216.383178710938	-114.2361602783203	455.6965332031251	-1092.341674804688	-158.7156219482422	255.3782043457032	-1133.70654296875	-239.4971466064454	251.8136596679688	-1174.713256835938	-206.2486419677735	230.4722747802735	-1152.917114257813	-241.1741027832032	165.0445861816407	-1103.6552734375	-345.8566589355469	118.7857894897461	-1110.557373046875	-304.1832275390626	139.3147888183594	-1031.55810546875	-413.0705871582032	96.71424102783206	-1049.524047851563	-199.5665893554688	58.28645706176759	-1051.559204101563	-204.422348022461	52.12171936035158	-1098.030883789063	-261.1305236816407	35.85715103149415	-1138.23388671875	-279.7590637207032	616.2751464843751	-865.7595825195315	-215.2226104736329	605.7744140625001	-871.3696899414065	-195.3105468750001	630.5440063476564	-879.5415649414065	-175.5784912109375	532.4913330078126	-879.6247558593752	-65.8651809692383	453.0538330078126	-888.9591064453127	-55.01859283447267	450.692840576172	-1024.1923828125	109.6410369873047	376.2574462890626	-907.3482055664065	123.7750854492188	271.5014648437501	-882.1932373046877	155.9134979248047	304.4966735839844	-891.1773071289065	202.9824829101563	289.0715026855469	-923.1695556640627	263.2275695800782	175.4183654785157	-898.661560058594	263.1221618652344	199.7006072998047	-985.8557128906252	262.9316101074219	96.38261413574222	-951.0464477539065	401.3734130859376	272.5689086914063	-966.7600097656252	395.8402709960939	272.6538085937501	-927.2357177734377	392.5473022460939	223.9178161621094	-874.5493774414065	nan	nan	nan	
555	2.77	-204.393295288086	1468.81689453125	-1152.858520507813	-328.3057861328126	1416.381591796875	-1195.23291015625	-381.0564270019532	1376.671264648438	-1063.9775390625	-374.7478332519532	1276.844360351563	-1111.18017578125	-511.7703247070314	1000.107727050781	-1072.493530273438	-264.6130676269532	1187.139770507813	-1120.873901367188	-297.2162780761719	1277.993774414063	-1245.179077148438	-141.968246459961	1259.561157226563	-1325.126220703125	-114.0845565795899	1266.303466796875	-1283.926513671875	-73.11692810058595	1250.463623046875	-1326.316162109375	-13.80984115600586	1227.522338867188	-1329.083374023438	-22.68247413635254	1168.49658203125	-1303.974365234375	nan	nan	nan	261.7421875000001	1258.483032226563	-1268.625854492188	325.9671020507813	1274.287109375	-1175.317626953125	-266.2938232421876	1260.534790039063	-991.3403930664065	-108.1630249023438	1215.471313476563	-916.0161743164065	-82.18959808349611	1235.0419921875	-951.6675415039065	-39.51358795166016	1202.924072265625	-922.552673339844	22.54492568969727	1196.802001953125	-935.925231933594	13.17654991149903	1134.233032226563	-978.3173828125002	265.5821533203126	1254.3896484375	-1097.301879882813	284.8649902343751	1238.614013671875	-1024.637451171875	359.7226257324219	1271.61669921875	-1100.63671875	-390.5022888183595	804.8858642578127	-1171.819091796875	-376.8304748535157	815.384216308594	-952.732360839844	-563.5814208984376	840.621276855469	-1048.379028320313	-574.9461059570314	807.670593261719	-1075.576293945313	-568.0341186523439	807.955749511719	-1019.795166015625	-329.3019104003907	576.7063598632814	-1232.6357421875	-245.7323913574219	562.9066772460939	-1244.614013671875	-219.6909942626954	601.3473510742189	-1249.600952148438	-214.2536315917969	514.1277465820314	-1229.042724609375	-110.9373626708985	451.4216613769532	-1216.733764648438	-114.2463836669922	455.3247680664064	-1092.625854492188	-158.7508544921875	255.207504272461	-1134.03271484375	-239.6398620605469	251.785140991211	-1175.06201171875	-205.941390991211	230.369857788086	-1153.32958984375	-241.3591461181641	165.1864624023438	-1104.170776367188	-345.9328002929688	118.8060684204102	-1110.7744140625	-304.1510925292969	139.3221435546875	-1031.821044921875	-413.0399169921876	96.76594543457034	-1049.602905273438	-199.4907531738282	58.40876388549806	-1051.626342773438	-204.4009857177735	52.1234474182129	-1098.115112304688	-261.2276000976563	35.81800842285157	-1138.341796875	-280.0249938964844	615.3960571289064	-865.5853271484377	-215.1854553222657	604.3733520507814	-871.540954589844	-194.8712005615235	630.2066650390626	-878.9194946289065	-175.4994201660157	531.6575317382814	-879.6459960937502	-65.78020477294923	452.4996643066407	-888.780212402344	-54.86910247802736	450.273406982422	-1024.067626953125	110.220817565918	375.9772338867188	-907.498229980469	124.4215469360352	271.4734802246094	-882.2846679687502	156.6433410644532	304.3988647460938	-891.1796875000002	203.4124908447266	289.2852172851563	-923.2120361328127	263.8769531250001	175.7700653076172	-898.8800048828127	263.8799438476563	200.0215911865235	-986.0181884765627	263.7596740722657	96.43685150146487	-951.2889404296877	401.2586364746095	273.4188842773438	-966.9539794921877	395.9969482421876	273.1921691894532	-927.3289184570315	393.2427368164064	224.3879852294922	-874.5689697265627	nan	nan	nan	
